<svg width="1440" height="557" viewBox="0 0 1440 557" fill="none" xmlns="http://www.w3.org/2000/svg">
<path opacity="0.09" d="M1440 71.2171C1409.87 72.038 1366.02 76.5154 1324.95 92.8084C1252.94 121.39 1258.71 170.767 1189.59 168.179C1120.47 165.592 1111.84 147.384 1054.23 181.164C996.643 214.944 987.991 235.74 918.869 220.143C849.747 204.546 807.034 147.93 711.765 156.762C616.496 165.567 628.009 199.372 553.142 201.96C478.276 204.547 423.551 240.939 377.477 191.562C331.404 142.185 325.636 77.2119 242.117 77.2119C158.599 77.2119 178.764 142.185 106.758 108.405C50.5543 82.0376 48.7427 22.4123 0 0V557H1439.98V71.2171H1440Z" fill="white"/>
</svg>
