<svg width="225" height="223" viewBox="0 0 225 223" fill="none" xmlns="http://www.w3.org/2000/svg">
<g clip-path="url(#clip0_1_71)">
<path opacity="0.09" d="M217.83 216.099C208.111 212.552 201.047 212.552 186.909 208.113C172.77 203.673 171.004 198.353 156.865 194.806C142.726 191.259 138.306 191.259 124.178 185.928C110.049 180.596 107.396 176.168 91.4909 168.182C75.5861 160.196 74.7085 153.983 59.6813 144.224C44.6646 134.464 51.7289 128.252 40.2447 117.6C28.7604 106.948 31.4037 101.628 19.9198 87.4289C13.2605 79.2003 5.42959 76.3474 0.0109863 75.389V164.591C2.95065 164.591 5.69286 163.941 9.31247 162.84C18.1534 160.174 13.7329 160.174 22.5628 161.066C31.3928 161.959 27.8607 157.519 36.7017 161.959C45.5426 166.398 46.4197 174.384 59.6703 183.251C72.9207 192.129 85.2935 190.345 98.5438 194.784C111.794 199.223 118.869 200.105 135.652 200.105C152.435 200.105 151.557 201.878 167.462 208.091C183.366 214.303 178.946 213.411 192.196 219.624C205.446 225.837 206.335 221.397 216.931 222.29C227.538 223.182 227.538 219.624 217.819 216.077L217.83 216.099Z" fill="white"/>
<path opacity="0.09" d="M68.5003 108.743C61.4364 103.423 63.2023 101.649 58.782 97.2101C54.3616 92.7708 47.2975 87.4505 41.1112 80.3566C34.9249 73.2626 39.3453 70.597 34.9248 65.2766C30.5042 59.9562 30.5045 57.2907 26.9724 50.1968C23.4402 43.103 24.3179 39.545 17.254 35.1169C10.19 30.6776 14.5988 22.6915 8.41311 10.2779C5.98902 5.36447 2.88481 2.13694 0 0V56.3213C6.34004 62.7433 8.69832 61.7191 19.9083 71.4673C33.1587 83.0004 26.9722 81.2268 32.2811 88.3208C37.5791 95.4146 39.345 96.3069 49.9518 103.401C60.5587 110.495 57.9042 110.495 68.5111 114.934C79.1179 119.373 82.6499 126.467 84.4159 122.92C86.1818 119.373 75.575 114.042 68.5111 108.721L68.5003 108.743Z" fill="white"/>
</g>
<defs>
<clipPath id="clip0_1_71">
<rect width="225" height="223" fill="white"/>
</clipPath>
</defs>
</svg>
