<svg width="205" height="207" viewBox="0 0 205 207" fill="none" xmlns="http://www.w3.org/2000/svg">
<path opacity="0.09" d="M193.974 16.8201C191.309 25.6754 198.413 27.4443 194.866 33.6298C191.319 39.8154 186.88 33.6298 186.88 38.9364C186.88 44.243 185.107 45.133 184.215 50.4396C183.323 55.7461 185.988 55.7461 184.215 61.9427C182.442 68.1393 179.776 66.3703 175.337 77.8735C170.898 89.3766 174.445 87.6076 170.898 94.6832C167.351 101.759 167.351 102.649 158.473 112.383C149.595 122.117 147.822 123.007 138.955 130.083C130.077 137.158 134.516 138.048 124.757 147.782C114.997 157.516 107.012 166.372 96.3604 172.557C85.709 178.754 81.2811 182.291 70.6297 184.95C59.9783 187.609 51.9926 189.378 42.2334 193.806C32.4743 198.233 25.3806 199.112 23.5963 200.002C21.8229 200.892 34.2476 201.771 46.6614 198.233C59.0861 194.696 55.5394 197.343 72.392 192.037C89.2447 186.73 85.698 188.499 106.109 178.765C126.519 169.031 124.746 160.175 138.052 155.759C151.358 151.331 158.462 146.024 162.89 139.828C167.329 133.631 165.556 130.973 176.196 130.094C186.847 129.204 191.275 125.666 193.049 121.238C194.822 116.811 200.98 114.163 205 112.383V0C200.913 4.66932 195.527 11.5367 193.941 16.8207L193.974 16.8201Z" fill="white"/>
<path opacity="0.09" d="M15.1811 200.024C15.1811 200.024 10.3015 196.486 7.63592 199.585C4.97032 202.683 -0.790479 199.585 0.0907627 203.122C0.98302 206.66 3.19698 207.989 7.18429 206.221C11.1716 204.452 14.2778 205.331 16.0623 203.562C17.8468 201.793 15.1701 200.024 15.1701 200.024H15.1811Z" fill="white"/>
<path opacity="0.09" d="M164.686 73.468C164.686 73.468 162.472 77.0058 160.247 84.0922C158.033 91.1676 158.033 89.3988 152.702 97.8146C147.381 106.219 145.608 107.549 139.396 112.855C133.183 118.162 129.636 122.15 125.638 125.248C121.65 128.347 117.652 132.324 115.879 132.774C114.105 133.214 119.866 125.248 124.305 121.711C128.744 118.173 130.077 116.843 135.838 107.988C141.61 99.1328 137.611 97.8145 145.156 90.2886C152.702 82.7627 152.702 82.3232 156.689 77.8956C160.676 73.468 162.901 71.2597 165.567 68.1614C168.232 65.0632 172.22 58.8668 171.339 62.8549C170.446 66.832 164.686 73.479 164.686 73.479V73.468Z" fill="white"/>
</svg>
