<svg width="1440" height="441" viewBox="0 0 1440 441" fill="none" xmlns="http://www.w3.org/2000/svg">
<path d="M1440 16.9099C1421.29 11.337 1400.12 5.02648 1394.07 3.30533C1382.56 -2.23323e-06 1365.28 0 1365.28 0L1330.72 29.6949L1293.27 33.0002L1261.59 59.4171L1229.92 92.4177C1229.92 92.4177 1183.84 95.723 1175.19 102.307C1166.56 108.918 1137.75 125.418 1137.75 125.418L1097.42 128.723C1097.42 128.723 1042.69 122.112 1031.18 122.112C1019.67 122.112 990.85 115.501 982.222 115.501C973.594 115.501 905.974 94.0288 905.974 94.0288C905.974 94.0288 858.303 114.19 849.651 117.495C841.023 120.8 820.215 145.361 820.215 145.361L795.044 174.892C795.044 174.892 751.855 181.503 743.203 181.503C734.551 181.503 714.41 161.698 714.41 161.698C714.41 161.698 671.221 155.088 662.569 151.809C653.941 148.504 625.125 148.504 616.497 145.198C607.869 141.893 579.052 135.309 556.027 122.087C532.978 108.892 515.698 92.3923 507.07 89.0866C498.442 85.7809 463.881 72.5865 446.6 75.8918C429.32 79.1971 397.643 85.7809 377.478 85.7809C357.313 85.7809 322.753 85.7809 291.076 75.8918C259.398 66.0027 193.161 23.0862 181.648 13.169C170.135 3.2784 112.526 19.7785 80.8489 32.9733C63.926 40.0214 28.9342 47.0696 0 52.1234V441H1439.98V16.883L1440 16.9099Z" fill="url(#paint0_linear_1_24)"/>
<path opacity="0.55" d="M628.246 369.89L1017.35 364.016L1108.24 259.852L1151.76 192.375L1130.5 126.046L1097.47 128.751C1097.47 128.751 1042.74 122.14 1031.23 122.14C1024.22 122.14 1010.82 119.708 999.479 117.796C995.594 127.631 990.35 138.121 984.106 143.967C970.019 157.162 927.783 164.511 916.271 165.986C904.758 167.461 889.385 188.005 880.423 196.801C871.46 205.597 843.311 232.014 827.937 236.412C812.587 240.81 784.414 245.209 772.902 242.286C761.389 239.362 744.753 242.286 726.829 229.091C708.906 215.896 699.943 208.547 682.019 202.674C664.095 196.801 625.697 210.023 616.735 202.674C607.773 195.353 560.412 163.062 537.388 142.519C514.339 121.975 518.176 110.256 484.903 89.7132C475.135 83.7157 464.835 78.9355 454.178 75.4546C451.652 75.3571 449.123 75.5217 446.622 75.9463C429.747 79.1697 399.19 85.5352 378.978 85.808C366.155 94.9048 354.188 103.566 351.782 102.882C346.658 101.407 312.097 129.299 312.097 129.299C312.097 129.299 286.379 155.385 279.3 157.681C291.218 165.822 359.459 231.987 359.459 231.987L628.248 369.89H628.246Z" fill="#282A57"/>
<path d="M279.276 153.283C278.036 152.436 277.393 152.217 277.512 152.764C277.655 153.474 278.299 153.583 279.276 153.283Z" fill="#282A57"/>
<defs>
<linearGradient id="paint0_linear_1_24" x1="714.24" y1="-53.361" x2="715.05" y2="385.448" gradientUnits="userSpaceOnUse">
<stop stop-color="#DB1E09" stop-opacity="0.89"/>
<stop offset="0.269231" stop-color="#BF3532"/>
<stop offset="0.5" stop-color="#A74854"/>
<stop offset="0.7" stop-color="#673955"/>
<stop offset="1" stop-color="#282A57"/>
</linearGradient>
</defs>
</svg>
