<svg width="1440" height="363" viewBox="0 0 1440 363" fill="none" xmlns="http://www.w3.org/2000/svg">
<path d="M1440 78.997C1409.11 66.2561 1350.33 41.1538 1315.1 34.5568C1269.03 25.9353 1271.91 23.0537 1248.87 17.2903C1225.82 11.5269 1159.6 0.0238123 1142.32 14.4084C1125.04 28.793 1058.8 80.5924 1044.41 89.2139C1030.01 97.8354 972.402 117.983 958.005 132.368C943.609 146.753 814.018 212.938 776.573 207.174C739.127 201.409 589.395 152.493 534.67 129.486C479.945 106.457 419.475 69.0659 390.682 51.7994C361.889 34.5329 284.139 0 266.858 0C249.576 0 168.943 25.8876 151.662 28.7695C134.382 31.6514 85.4248 48.9175 47.9796 48.9175C34.0359 48.9175 16.5174 50.1084 0 51.6089V362.645H1439.98V78.9494L1440 78.997Z" fill="url(#paint0_linear_1_66)"/>
<path d="M48.0055 48.9655C34.0618 48.9655 16.5433 50.1564 0.0258789 51.6569V362.691H573.331C422.55 287.79 225.911 186.669 214.16 163.186C194.949 124.82 325.517 59.5873 321.68 42.3212C317.843 25.0551 266.859 0.0479736 266.859 0.0479736C249.579 0.0479736 168.945 25.9356 151.664 28.8175C134.384 31.6994 85.4265 48.9655 47.9813 48.9655H48.0055Z" fill="url(#paint1_linear_1_66)"/>
<path d="M1248.87 17.3142C1228.73 12.2891 1175.6 2.85781 1151 10.169L1151.1 13.5507C1151.1 13.5507 1133.81 51.9179 1137.65 71.1136C1141.49 90.3092 1202.94 128.676 1202.94 168.949C1202.94 194.337 1082.5 292.839 991.972 362.714H1440V79.0209C1409.11 66.2797 1350.33 41.1777 1315.1 34.5807C1269.03 25.9605 1271.91 23.0776 1248.87 17.3142Z" fill="url(#paint2_linear_1_66)"/>
<defs>
<linearGradient id="paint0_linear_1_66" x1="734" y1="-47.5" x2="702.562" y2="304.362" gradientUnits="userSpaceOnUse">
<stop stop-color="#DE5654"/>
<stop offset="0.13" stop-color="#CE5254"/>
<stop offset="0.37" stop-color="#A74854"/>
<stop offset="0.7" stop-color="#673955"/>
<stop offset="1" stop-color="#282A57"/>
</linearGradient>
<linearGradient id="paint1_linear_1_66" x1="297.5" y1="-110.5" x2="298.535" y2="391.378" gradientUnits="userSpaceOnUse">
<stop offset="0.0625" stop-color="#B80708"/>
<stop offset="0.37" stop-color="#A74854"/>
<stop offset="0.7" stop-color="#673955"/>
<stop offset="1" stop-color="#282A57"/>
</linearGradient>
<linearGradient id="paint2_linear_1_66" x1="1232" y1="-53.5" x2="1260" y2="250.563" gradientUnits="userSpaceOnUse">
<stop offset="0.0625" stop-color="#E32724"/>
<stop offset="0.514423" stop-color="#A74854"/>
<stop offset="0.7" stop-color="#673955"/>
<stop offset="1" stop-color="#282A57"/>
</linearGradient>
</defs>
</svg>
