<svg width="1302" height="242" viewBox="0 0 1302 242" fill="none" xmlns="http://www.w3.org/2000/svg">
<path d="M1102.63 155.682C1102.63 156.1 1102.51 156.508 1102.28 156.855C1102.04 157.202 1101.71 157.472 1101.33 157.632C1100.94 157.791 1100.52 157.833 1100.11 157.752C1099.7 157.67 1099.32 157.469 1099.03 157.174C1098.73 156.879 1098.53 156.503 1098.45 156.094C1098.37 155.685 1098.41 155.26 1098.57 154.875C1098.73 154.489 1099 154.16 1099.35 153.928C1099.69 153.696 1100.1 153.573 1100.52 153.573C1101.08 153.575 1101.61 153.797 1102.01 154.193C1102.41 154.588 1102.63 155.123 1102.63 155.682Z" fill="white"/>
<path d="M390.013 27.3127C391.179 27.3127 392.125 26.3681 392.125 25.2029C392.125 24.0376 391.179 23.093 390.013 23.093C388.847 23.093 387.901 24.0376 387.901 25.2029C387.901 26.3681 388.847 27.3127 390.013 27.3127Z" fill="white"/>
<path d="M453.801 185.798C454.967 185.798 455.913 184.854 455.913 183.689C455.913 182.523 454.967 181.579 453.801 181.579C452.635 181.579 451.689 182.523 451.689 183.689C451.689 184.854 452.635 185.798 453.801 185.798Z" fill="white"/>
<path d="M945.146 191.641C946.312 191.641 947.257 190.696 947.257 189.531C947.257 188.365 946.312 187.421 945.146 187.421C943.979 187.421 943.034 188.365 943.034 189.531C943.034 190.696 943.979 191.641 945.146 191.641Z" fill="white"/>
<path d="M44.0875 237.707C44.0875 238.367 43.8916 239.012 43.5244 239.561C43.1573 240.11 42.6355 240.538 42.0249 240.791C41.4144 241.044 40.7426 241.11 40.0944 240.981C39.4463 240.852 38.8509 240.534 38.3837 240.067C37.9164 239.6 37.5982 239.006 37.4692 238.358C37.3403 237.71 37.4065 237.039 37.6594 236.429C37.9123 235.819 38.3405 235.298 38.89 234.931C39.4394 234.564 40.0854 234.368 40.7463 234.368C41.6324 234.369 42.4821 234.72 43.1086 235.346C43.7352 235.972 44.0873 236.821 44.0875 237.707Z" fill="white"/>
<path d="M1302 202.212C1302 202.872 1301.8 203.518 1301.44 204.067C1301.07 204.616 1300.55 205.043 1299.94 205.296C1299.33 205.549 1298.65 205.615 1298.01 205.486C1297.36 205.357 1296.76 205.039 1296.3 204.572C1295.83 204.105 1295.51 203.51 1295.38 202.863C1295.25 202.215 1295.32 201.544 1295.57 200.934C1295.82 200.324 1296.25 199.803 1296.8 199.436C1297.35 199.069 1298 198.873 1298.66 198.873C1299.54 198.874 1300.39 199.225 1301.02 199.851C1301.65 200.478 1302 201.327 1302 202.212Z" fill="white"/>
<path d="M8.95663 62.5521C8.95663 63.437 8.69398 64.3021 8.20189 65.0379C7.70981 65.7738 7.01039 66.3473 6.19209 66.6859C5.37379 67.0246 4.47335 67.1132 3.60464 66.9405C2.73593 66.7679 1.93797 66.3417 1.31167 65.716C0.685366 65.0902 0.258848 64.293 0.0860515 63.425C-0.0867451 62.557 0.00194036 61.6574 0.340893 60.8398C0.679846 60.0222 1.25384 59.3234 1.9903 58.8317C2.72675 58.3401 3.59259 58.0776 4.47831 58.0776C5.66582 58.0783 6.80449 58.55 7.64418 59.3889C8.48388 60.2279 8.95592 61.3656 8.95663 62.5521Z" fill="white"/>
<g opacity="0.55">
<path d="M201.481 88.7039C202.647 88.7039 203.592 87.7592 203.592 86.594C203.592 85.4288 202.647 84.4841 201.481 84.4841C200.314 84.4841 199.369 85.4288 199.369 86.594C199.369 87.7592 200.314 88.7039 201.481 88.7039Z" fill="white"/>
<path d="M635.372 10.5043C636.538 10.5043 637.484 9.55966 637.484 8.39441C637.484 7.22917 636.538 6.28455 635.372 6.28455C634.206 6.28455 633.26 7.22917 633.26 8.39441C633.26 9.55966 634.206 10.5043 635.372 10.5043Z" fill="white"/>
<path d="M356.855 122.552C358.021 122.552 358.966 121.608 358.966 120.443C358.966 119.277 358.021 118.333 356.855 118.333C355.688 118.333 354.743 119.277 354.743 120.443C354.743 121.608 355.688 122.552 356.855 122.552Z" fill="white"/>
<path d="M1257.94 168.595C1257.94 169.255 1258.13 169.901 1258.5 170.45C1258.87 170.999 1259.39 171.427 1260 171.679C1260.61 171.932 1261.28 171.998 1261.93 171.869C1262.58 171.741 1263.17 171.423 1263.64 170.956C1264.11 170.489 1264.42 169.894 1264.55 169.247C1264.68 168.599 1264.62 167.928 1264.36 167.318C1264.11 166.708 1263.68 166.186 1263.13 165.82C1262.58 165.453 1261.94 165.257 1261.28 165.257C1260.39 165.257 1259.54 165.609 1258.91 166.235C1258.29 166.861 1257.94 167.71 1257.94 168.595Z" fill="white"/>
<path d="M0.0231934 133.124C0.0231934 133.784 0.219154 134.43 0.586295 134.979C0.953436 135.528 1.47527 135.956 2.0858 136.208C2.69633 136.461 3.36815 136.527 4.01629 136.398C4.66442 136.269 5.25978 135.951 5.72706 135.485C6.19434 135.018 6.51256 134.423 6.64149 133.775C6.77041 133.128 6.70424 132.456 6.45135 131.846C6.19846 131.236 5.7702 130.715 5.22074 130.348C4.67127 129.981 4.02528 129.786 3.36444 129.786C2.47837 129.786 1.62866 130.138 1.00211 130.764C0.375565 131.39 0.023457 132.239 0.0231934 133.124Z" fill="white"/>
</g>
</svg>
