<svg width="34" height="24" viewBox="0 0 34 24" fill="none" xmlns="http://www.w3.org/2000/svg">
<path d="M33.041 11.6609C33.041 11.2183 32.896 10.7937 32.6378 10.4807C32.3796 10.1677 32.0294 9.99185 31.6643 9.99185L4.70054 9.99185L10.6093 2.82818C10.8601 2.51339 10.9988 2.09177 10.9957 1.65415C10.9925 1.21652 10.8478 0.797897 10.5925 0.488438C10.3373 0.178978 9.99197 0.00344478 9.63101 -0.000358442C9.27005 -0.00416166 8.92229 0.164072 8.66265 0.468107L0.40253 10.4826C0.275142 10.6361 0.174044 10.8187 0.10506 11.0198C0.0360707 11.2208 0.000548277 11.4365 0.000536852 11.6542L0.000536853 11.6609C0.000536872 11.8779 0.0363302 12.0949 0.107917 12.2985C0.176532 12.5009 0.27761 12.6847 0.405284 12.8393L8.6654 22.8537C8.92505 23.1578 9.2728 23.326 9.63376 23.3222C9.99473 23.3184 10.34 23.1429 10.5953 22.8334C10.8505 22.5239 10.9953 22.1053 10.9984 21.6677C11.0016 21.2301 10.8628 20.8085 10.612 20.4937L4.70054 13.33L31.6643 13.33C32.0294 13.33 32.3796 13.1541 32.6378 12.8411C32.896 12.5281 33.041 12.1036 33.041 11.6609Z" fill="white"/>
</svg>
