<svg width="34" height="24" viewBox="0 0 34 24" fill="none" xmlns="http://www.w3.org/2000/svg">
<path d="M0 11.6613C0 12.104 0.145044 12.5285 0.403222 12.8416C0.661401 13.1546 1.01157 13.3304 1.37669 13.3304H28.3405L22.4317 20.4941C22.181 20.8089 22.0422 21.2305 22.0453 21.6681C22.0485 22.1057 22.1932 22.5244 22.4485 22.8338C22.7037 23.1433 23.049 23.3188 23.41 23.3226C23.771 23.3264 24.1187 23.1582 24.3784 22.8542L32.6385 12.8397C32.7659 12.6862 32.867 12.5036 32.936 12.3025C33.0049 12.1014 33.0405 11.8858 33.0405 11.668V11.6613C33.0405 11.4444 33.0047 11.2274 32.9331 11.0238C32.8645 10.8214 32.7634 10.6376 32.6357 10.483L24.3756 0.468529C24.116 0.164494 23.7682 -0.00373976 23.4072 6.30954e-05C23.0463 0.00386595 22.701 0.1794 22.4457 0.48886C22.1905 0.79832 22.0457 1.21695 22.0426 1.65457C22.0394 2.0922 22.1782 2.51381 22.429 2.8286L28.3405 9.99227H1.37669C1.01157 9.99227 0.661401 10.1681 0.403222 10.4811C0.145044 10.7941 0 11.2187 0 11.6613Z" fill="white"/>
</svg>
